<svg id="Gradient" enable-background="new 0 0 512 512" viewBox="0 0 512 512" xmlns="http://www.w3.org/2000/svg" xmlns:xlink="http://www.w3.org/1999/xlink"><linearGradient id="SVGID_1_" gradientUnits="userSpaceOnUse" x1="16" x2="496" y1="256" y2="256"><stop offset="0" stop-color="#12c2e9"/><stop offset=".5" stop-color="#c471ed"/><stop offset="1" stop-color="#f64f59"/></linearGradient><path d="m384 136c0 4.4-3.6 8-8 8s-8-3.6-8-8 3.6-8 8-8 8 3.6 8 8zm112 8c0 30.9-25.1 56-56 56h-26c-8.1 11.3-18.7 20.9-31.1 27.8 23.3 15 37.9 42.3 40.6 77.4 1.9 24.3-6.5 48.6-23.1 66.5-16.6 18-40.2 28.3-64.6 28.3h-55.8v16h8c22.1 0 40 17.9 40 40 0 4.4-3.6 8-8 8h-160c-4.4 0-8-3.6-8-8v-32c0-4.4 3.6-8 8-8h8v-16.8c-85.2-8.1-152-80-152-167.2v-72c0-4 2.9-7.4 6.9-7.9s7.7 1.9 8.8 5.7c.6 2 15.2 50.2 64.3 50.2h144c8.4 0 13.6-4 15.4-11.8-10.1-15.6-15.4-33.5-15.4-52.2 0-52.9 43.1-96 96-96 50.2 0 91.6 38.8 95.7 88h56.3c4.4 0 8 3.6 8 8zm-407.1 79.7c3.9 17.5 20.5 32.3 38 32.3h49.1c4.4 0 8 3.6 8 8s-3.6 8-8 8h-55.1c4 17.3 20.6 32 37.9 32h17.1c4.4 0 8 3.6 8 8s-3.6 8-8 8h-23.3c2.8 15.4 13.8 24 31.3 24h40c30.9 0 56-25.1 56-56v-8c0-30.9-25.1-56-56-56h-127.9c-2.4 0-4.8-.1-7.1-.3zm157.7 224.3c-3.3-9.3-12.2-16-22.6-16h-56v16zm-46.6-32v-16h-16v16zm32 0v-16h-16v16zm24 16c3.5 4.7 6 10.1 7.2 16h47.4c-3.3-9.3-12.2-16-22.6-16zm8-16v-16h-16v16zm152-272c0-44.1-35.9-80-80-80s-80 35.9-80 80c0 16.5 5 32.3 14.4 45.8 1.1 1.6 1.6 3.6 1.4 5.5-1 8.2-4.6 16.8-11.8 22.4 21.5 12.5 36 35.7 36 62.3v8c0 39.7-32.3 72-72 72h-40c-28.3 0-46.9-17.8-48-45.6-5.7-2.8-11-6.7-15.6-11.5-9.9-10.1-15.8-23.3-16.4-36.5-5.7-2.8-11-6.7-15.6-11.5-9.3-9.6-15.1-21.9-16.2-34.4-15.4-4.6-28.8-14-39.5-27.6-.2-.3-.5-.6-.7-.9v40c0 83.8 68.2 152 152 152h151.8c20.3 0 39.1-8.2 52.9-23.1s20.5-34.2 18.9-54.4c-2.9-36.6-19.3-62-46.2-71.4-3.2-1.1-5.4-4.2-5.3-7.6 0-3.4 2.2-6.4 5.5-7.5 32.5-11.1 54.4-41.6 54.4-76zm63.2 8h-47.5c-.9 11.3-3.8 22.1-8.4 32h16.7c19.3 0 35.5-13.8 39.2-32z" fill="url(#SVGID_1_)"/></svg>